<mxfile host="app.diagrams.net" modified="2024-07-14T16:13:31.121Z" agent="Mozilla/5.0 (Macintosh; Intel Mac OS X 10_15_7) AppleWebKit/537.36 (KHTML, like Gecko) Chrome/126.0.0.0 Safari/537.36" version="24.6.5" etag="l-o3cJHs5pKImjMMMf7w" type="github">
  <diagram name="Page-1" id="f1DLifiXvc8qFaFynfyt">
    <mxGraphModel>
      <root>
        <mxCell id="0" />
        <mxCell id="1" parent="0" />
      </root>
    </mxGraphModel>
  </diagram>
</mxfile>
